<svg height="512pt" viewBox="-46 0 512 512" fill="#ffffff" xmlns="http://www.w3.org/2000/svg"><path d="m124.871094 262.585938c-29.179688 0-52.917969 23.757812-52.917969 52.960937 0 23.988281 16.023437 44.304687 37.917969 50.792969v39.332031c0 8.285156 6.71875 15 15 15 8.285156 0 15-6.714844 15-15v-39.332031c21.898437-6.488282 37.921875-26.804688 37.921875-50.792969 0-29.203125-23.738281-52.960937-52.921875-52.960937zm0 75.921874c-12.636719 0-22.917969-10.300781-22.917969-22.960937 0-12.664063 10.28125-22.960937 22.917969-22.960937 12.640625 0 22.921875 10.296874 22.921875 22.960937 0 12.660156-10.28125 22.960937-22.921875 22.960937zm0 0"/><path d="m376.066406 124.257812h-126.320312v-17.1875c0-26.101562-21.21875-47.339843-47.304688-47.339843-2.605468 0-4.835937-1.792969-5.550781-4.457031-8.738281-32.542969-38.355469-55.273438-72.019531-55.273438-33.660156 0-63.277344 22.730469-72.015625 55.273438-.714844 2.667968-2.945313 4.457031-5.550781 4.457031-26.085938 0-47.304688 21.238281-47.304688 47.339843v297.859376c0 26.101562 21.21875 47.339843 47.304688 47.339843 2.605468 0 4.835937 1.789063 5.550781 4.457031 8.738281 32.542969 38.355469 55.273438 72.015625 55.273438 33.664062 0 63.28125-22.730469 72.019531-55.273438.714844-2.664062 2.945313-4.457031 5.550781-4.457031 26.082032 0 47.304688-21.234375 47.304688-47.339843v-194.242188l127.828125-.003906c23.394531 0 42.425781-19.046875 42.425781-42.460938 0-24.242187-19.707031-43.964844-43.933594-43.964844zm-156.320312 280.671876c0 9.5625-7.761719 17.339843-17.300782 17.339843-.003906 0-.003906 0-.003906 0-16.109375 0-30.308594 10.972657-34.527344 26.675781-5.222656 19.460938-22.921874 33.054688-43.042968 33.054688-20.113282 0-37.816406-13.59375-43.039063-33.054688-4.21875-15.707031-18.417969-26.675781-34.527343-26.675781-9.542969 0-17.304688-7.777343-17.304688-17.339843v-297.859376c0-9.5625 7.761719-17.339843 17.304688-17.339843 16.113281 0 30.308593-10.972657 34.527343-26.675781 5.222657-19.460938 22.925781-33.054688 43.039063-33.054688 20.121094 0 37.820312 13.59375 43.042968 33.054688 4.21875 15.707031 18.414063 26.675781 34.527344 26.675781 9.542969 0 17.304688 7.78125 17.304688 17.339843v17.1875h-44.589844c-12.699219-14.539062-30.902344-22.839843-50.261719-22.839843-18.300781 0-35.375 7.265625-48.074219 20.453125-12.710937 13.203125-19.328124 30.582031-18.632812 48.941406 1.316406 34.730469 29.539062 62.921875 64.246094 64.175781.800781.03125 1.597656.042969 2.398437.042969 19.917969 0 38.921875-8.957031 51.59375-24.339844h43.316407v194.238282zm157.828125-224.246094-203.316407.007812c-7.960937.003906-15.347656 3.660156-20.273437 10.03125-7.347656 9.511719-18.460937 14.714844-30.464844 14.285156-19.097656-.691406-34.625-16.210937-35.351562-35.332031-.382813-10.136719 3.261719-19.722656 10.265625-26.996093 6.992187-7.265626 16.390625-11.265626 26.460937-11.265626 11.03125 0 21.382813 4.902344 28.402344 13.445313 4.902344 5.972656 12.109375 9.398437 19.773437 9.398437h202.996094c7.683594 0 13.933594 6.265626 13.933594 13.964844 0 6.871094-5.574219 12.460938-12.425781 12.460938zm0 0"/></svg>