<svg height="512" viewBox="0 0 56 59" fill="#ffffff" xmlns="http://www.w3.org/2000/svg"><g id="036---Locked"><path id="Shape" d="m33 29.29c.10491-1.8538221-.8244765-3.6135309-2.4147236-4.5720594-1.590247-.9585286-3.5803058-.9585286-5.1705528 0-1.5902471.9585285-2.5196336 2.7182373-2.4147236 4.5720594 3.3225023-.3800187 6.6774977-.3800187 10 0z"/><path id="Shape" d="m35.91 31.74c-5.22706-.9879573-10.59294-.9879573-15.82 0-.14.023-.09-.618-.09 11.26 0 .03.03.07.09.08 5.2268581.9901103 10.5931419.9901103 15.82 0 .14-.023.09.667.09-11.25-.0045716-.0476839-.0423161-.0854284-.09-.09zm-3.14 2.9-5 6c-.189471.2296858-.4722565.3618972-.77.36-.406 0-.242.011-3.55-2.17-.4021248-.3239123-.4915129-.9007244-.206288-1.3311547s.8512619-.5729246 1.306288-.3288453l2.26 1.5 4.42-5.31c.22865-.2750945.5866924-.407309.9392563-.3468396.3525638.0604695.6460861.3044361.77.64.1239138.335564.0593937.7117451-.1692563.9868396z"/><path id="Shape" d="m44 18c-1-1-10-1-10-1v-2c0-2.209139-1.790861-4-4-4h-4c-2.209139 0-4 1.790861-4 4v2s-9 0-10 1-6 12-7 13c-1.867 1.867-5 5.342-5 8 0 3 1 5 1 8v9c0 1.6568542 1.34314575 3 3 3h2c1.65685425 0 3-1.3431458 3-3v-3s7 2 19 2 19-2 19-2v3c0 1.6568542 1.3431458 3 3 3h2c1.6568542 0 3-1.3431458 3-3v-9c0-2.88.92-4.84.99-7.66.251-2.754-3.029-6.379-4.99-8.34-1-1-6-12-7-13zm-16-3c1.1045695 0 2 .8954305 2 2s-.8954305 2-2 2-2-.8954305-2-2c.0032948-1.1032019.8967981-1.9967052 2-2zm-13.62 28.44c-.1714919.3451393-.5246111.5624434-.91.56-10.15-.16-9.83-4.38-9.22-6.19.17345216-.4716287.6699647-.7412863 1.16-.63 2.67931746.4961432 5.3954709.7670896 8.12.81.3676353.0140902.6995849.2239434.87.55.806221 1.5356114.7987295 3.3710211-.02 4.9zm23.62-.44c-.0073609 1.0074513-.7291484 1.8677213-1.72 2.05-5.4722788 1.0264909-11.0877212 1.0264909-16.56 0-.9908516-.1822787-1.7126391-1.0425487-1.72-2.05v-11.17c.0073609-1.0074513.7291484-1.8677213 1.72-2.05.42-.08.85-.16 1.28-.22v-.56c.0086852-2.8272075 1.7160533-5.3720506 4.3288257-6.4521423 2.6127724-1.0800916 5.6187031-.483675 7.6211743 1.5121423 1.321135 1.3031191 2.0603127 3.0843571 2.05 4.94v.56c.43.06.86.14 1.28.22.9908516.1822787 1.7126391 1.0425487 1.72 2.05zm13.75-5.19c.1605089.4702589.2449045.9631293.25 1.46 0 2-1.53 4.6-9.47 4.73-.3853889.0024434-.7385081-.2148607-.91-.56-.8187295-1.5289789-.826221-3.3643886-.02-4.9.1704151-.3260566.5023647-.5359098.87-.55 2.7245291-.0429104 5.4406825-.3138568 8.12-.81.4900353-.1112863.9865478.1583713 1.16.63z"/><path id="Shape" d="m41.631 8.262c.3661187.38892586.9732551.42146232 1.3788427.07389222s.4664214-.95252669.1381573-1.37389222c-3.794378-4.41670903-9.3272324-6.95769251-15.15-6.95769251s-11.355622 2.54098348-15.15 6.95769251c-.3282641.42136553-.2674303 1.02632212.1381573 1.37389222s1.012724.31503364 1.3788427-.07389222c3.4140627-3.97509147 8.3930404-6.26210799 13.633-6.26210799s10.2189373 2.28701652 13.633 6.26210799z"/><path id="Shape" d="m16.384 10.53c-.225256.2774167-.285401.653933-.157779.9877187.1276219.3337858.4236221.574131.7765.6305001.3528779.056369.709023-.0798021.934279-.3572188 2.4616972-3.03088574 6.158359-4.79079212 10.063-4.79079212s7.6013028 1.75990638 10.063 4.79079212c.225256.2774167.5814011.4135877.934279.3572187s.6488781-.2967142.7765-.6305c.127622-.3337857.067477-.710302-.157779-.9877187-2.8416661-3.49853663-7.108803-5.52997117-11.616-5.52997117s-8.7743339 2.03143454-11.616 5.52997117z"/></g></svg>