<svg height="424pt" viewBox="-28 0 424 424" fill="#ffffff" xmlns="http://www.w3.org/2000/svg"><path d="m48 168c0-22.089844 17.910156-40 40-40s40 17.910156 40 40v24h16v-24c0-30.929688-25.070312-56-56-56s-56 25.070312-56 56v24h16zm0 0"/><path d="m64 168v24h48v-24c0-13.253906-10.746094-24-24-24s-24 10.746094-24 24zm0 0"/><path d="m176 360v-144c0-4.417969-3.582031-8-8-8h-160c-4.417969 0-8 3.582031-8 8v144c0 4.417969 3.582031 8 8 8h160c4.417969 0 8-3.582031 8-8zm-64-56.167969v16.167969c0 13.253906-10.746094 24-24 24s-24-10.746094-24-24v-16.160156c-13.773438-10.332032-19.390625-28.316406-13.949219-44.648438 5.445313-16.335937 20.730469-27.351562 37.949219-27.351562s32.503906 11.015625 37.949219 27.351562c5.441406 16.332032-.175781 34.316406-13.949219 44.648438zm0 0"/><path d="m216 104h16v16h-16zm0 0"/><path d="m296 72h16v16h-16zm0 0"/><path d="m102.910156 253.191406c-4.214844-3.378906-9.460937-5.210937-14.863281-5.191406-1.988281.003906-3.972656.234375-5.910156.6875-9.511719 2.332031-16.636719 10.230469-17.980469 19.925781-1.347656 9.699219 3.355469 19.238281 11.867188 24.074219 2.472656 1.425781 3.996093 4.058594 4 6.914062v20.398438c0 4.417969 3.582031 8 8 8 4.417968 0 8-3.582031 8-8v-20.441406c.007812-2.851563 1.53125-5.484375 4-6.910156 6.886718-3.9375 11.367187-11.039063 11.957031-18.949219.589843-7.910157-2.792969-15.59375-9.019531-20.507813zm0 0"/><path d="m267.3125 0-37.65625 37.65625c-1.5 1.5-3.535156 2.34375-5.65625 2.34375h-112c-4.417969 0-8 3.582031-8 8v49.855469c32.722656 7.488281 55.945312 36.574219 56 70.144531v24h8c13.253906 0 24 10.746094 24 24v32h24v-112h-8c-4.417969 0-8-3.582031-8-8v-32c0-4.417969 3.582031-8 8-8h32c4.417969 0 8 3.582031 8 8v32c0 4.417969-3.582031 8-8 8h-8v120c0 4.417969-3.582031 8-8 8h-32v16h56v-96c0-2.121094.84375-4.15625 2.34375-5.65625l45.65625-45.65625v-28.6875h-8c-4.417969 0-8-3.582031-8-8v-32c0-4.417969 3.582031-8 8-8h32c4.417969 0 8 3.582031 8 8v32c0 4.417969-3.582031 8-8 8h-8v32c0 2.121094-.84375 4.15625-2.34375 5.65625l-45.65625 45.65625v100.6875c0 4.417969-3.582031 8-8 8h-64v16h68.6875l19.3125-19.3125v-28.6875h16v32c0 2.121094-.84375 4.15625-2.34375 5.65625l-24 24c-1.5 1.5-3.535156 2.34375-5.65625 2.34375h-72v16h72v16h-72c0 13.253906-10.746094 24-24 24h-128v32c0 4.417969 3.582031 8 8 8h276.449219c-2.878907-4.84375-4.417969-10.367188-4.449219-16v-184c0-4.417969-3.582031-8-8-8h-32v-16h32c13.253906 0 24 10.746094 24 24v184c0 8.835938 7.164062 16 16 16s16-7.164062 16-16v-408zm52.6875 32h-16v-16h16zm-24 328h-16v-16h16zm0-128v16h-16v-16zm56-200h-16v-16h16zm0 0"/></svg>