<svg height="512" viewBox="0 0 49 60" fill="#ffffff" xmlns="http://www.w3.org/2000/svg"><g id="012---Wireless-Door-Lock"><path id="Shape" d="m45 0h-24c-2.209139 0-4 1.790861-4 4v12h-13c-2.209139 0-4 1.790861-4 4v2c0 2.209139 1.790861 4 4 4h13v18c0 8.836556 7.163444 16 16 16s16-7.163444 16-16v-40c0-2.209139-1.790861-4-4-4zm-43 22v-2c0-1.1045695.8954305-2 2-2h29c1.1045695 0 2 .8954305 2 2v2c0 1.1045695-.8954305 2-2 2h-29c-1.1045695 0-2-.8954305-2-2zm31-6h-6.22c2.1230833-2.6517302 5.6893049-3.6735438 8.8945278-2.5485093 3.2052228 1.1250345 5.3504702 4.1515759 5.3504702 7.5485093s-2.1452474 6.4234748-5.3504702 7.5485093c-3.2052229 1.1250345-6.7714445.1032209-8.8945278-2.5485093h6.22c2.209139 0 4-1.790861 4-4v-2c0-2.209139-1.790861-4-4-4zm14 28c-.0000001 7.7319864-6.2680136 13.9999998-14 13.9999998s-13.9999999-6.2680134-14-13.9999998v-18h5.37c2.2630284 3.9196802 6.8766093 5.830688 11.2484445 4.6592583 4.3718351-1.1714297 7.4118095-5.1332015 7.4118095-9.6592583s-3.0399744-8.4878286-7.4118095-9.6592583c-4.3718352-1.1714297-8.9854161.7395781-11.2484445 4.6592583h-5.37v-12c0-1.1045695.8954305-2 2-2h24c1.1045695 0 2 .8954305 2 2z"/><path id="Shape" d="m24 4h-2c-.5522847 0-1 .44771525-1 1s.4477153 1 1 1h2c.5522847 0 1-.44771525 1-1s-.4477153-1-1-1z"/><path id="Shape" d="m38 4h-10c-.5522847 0-1 .44771525-1 1s.4477153 1 1 1h10c.5522847 0 1-.44771525 1-1s-.4477153-1-1-1z"/><path id="Shape" d="m33 37c-1.5740428-.0014772-3.0026222.9203226-3.6498995 2.3551205-.6472772 1.434798-.392905 3.1158241.6498995 4.2948795v2.35c.0006867.7904856.3133382 1.5487553.87 2.11.8557116.8627584 2.1473566 1.1241063 3.2711624.6618782s1.8577829-1.5567267 1.8588376-2.7718782v-2.35c1.0428045-1.1790554 1.2971767-2.8600815.6498995-4.2948795-.6472773-1.4347979-2.0758567-2.3565977-3.6498995-2.3551205zm1.34 5.48c-.2157843.1895698-.3396363.4627728-.34.75v2.77c-.0056782.4026282-.252292.762573-.6257065.913249-.3734146.1506761-.8007742.0626855-1.0842935-.223249-.37-.36-.29-.47-.29-3.46-.0003637-.2872272-.1242157-.5604302-.34-.75-.6143738-.5544881-.8237764-1.4300987-.5267411-2.2025507.2970354-.7724521 1.0391469-1.2821715 1.8667411-1.2821715s1.5697057.5097194 1.8667411 1.2821715c.2970353.772452.0876327 1.6480626-.5267411 2.2025507z"/><path id="Shape" d="m9.2 32.6c.4418278-.3313708.53137085-.9581722.2-1.4s-.9581722-.5313708-1.4-.2c-3.77708764 2.8328157-6 7.2786405-6 12s2.22291236 9.1671843 6 12c.17309617.1298221.38362979.2.6.2.43043041 0 .81256925-.2754301.9486833-.6837722.13611404-.4083422-.00433897-.8579696-.3486833-1.1162278-3.27347595-2.455107-5.2-6.3081551-5.2-10.4s1.92652405-7.944893 5.2-10.4z"/><path id="Shape" d="m11.6 35.8c.2858125-.2143594.4355547-.5649147.3928203-.9196152-.0427344-.3547006-.2714531-.6596589-.6-.8-.3285469-.1403412-.7070078-.0947442-.9928203.1196152-2.76986427 2.0773982-4.4 5.3376697-4.4 8.8s1.63013573 6.7226018 4.4 8.8c.1730962.1298221.3836298.2.6.2.4304304 0 .8125693-.2754301.9486833-.6837722.136114-.4083422-.004339-.8579696-.3486833-1.1162278-2.26625258-1.6996894-3.6-4.3671843-3.6-7.2s1.33374742-5.5003106 3.6-7.2z"/><path id="Shape" d="m14 39c.2858125-.2143594.4355547-.5649147.3928203-.9196152-.0427344-.3547006-.2714531-.6596589-.6-.8-.3285469-.1403412-.7070078-.0947442-.9928203.1196152-1.7626409 1.3219807-2.8 3.3966989-2.8 5.6s1.0373591 4.2780193 2.8 5.6c.4418278.3313708 1.0686291.2418277 1.3999999-.2000001.3313709-.4418277.2418278-1.068629-.1999999-1.3999999-1.2590292-.9442719-2-2.4262135-2-4s.7409708-3.0557281 2-4z"/></g></svg>