<svg height="496pt" viewBox="0 0 496 496" fill="#ffffff" xmlns="http://www.w3.org/2000/svg"><path d="m480 416v-280c0-22.054688-17.945312-40-40-40h-96c0-52.9375-43.0625-96-96-96s-96 43.0625-96 96h-96c-22.054688 0-40 17.945312-40 40v280h-16v40c0 22.054688 17.945312 40 40 40h416c22.054688 0 40-17.945312 40-40v-40zm-136-304h96c13.230469 0 24 10.769531 24 24v280h-16v-272c0-8.824219-7.175781-16-16-16h-88zm0 32h88v272h-368v-272h88v58.609375l-16 8.613281v6.664063c0 75.808593 41.464844 145.21875 108.207031 181.160156l3.792969 2.042969 3.792969-2.042969c66.742187-35.941406 108.207031-105.359375 108.207031-181.167969v-6.664062l-112-60.3125-48 25.851562v-32.753906h96v16h48zm-152 288h112v8c0 4.40625-3.59375 8-8 8h-96c-4.40625 0-8-3.59375-8-8zm56-262.910156 95.976562 51.679687c-1.015624 67.335938-37.480468 128.863281-95.976562 162.085938-58.496094-33.222657-94.960938-94.757813-95.976562-162.09375zm48-57.089844v16h-96v-16zm-96-16c0-26.472656 21.527344-48 48-48s48 21.527344 48 48zm48-80c44.113281 0 80 35.886719 80 80v48h-16v-48c0-35.289062-28.710938-64-64-64s-64 28.710938-64 64v89.375l-16 8.617188v-97.992188c0-44.113281 35.886719-80 80-80zm-216 120c0-13.230469 10.769531-24 24-24h96v16h-88c-8.824219 0-16 7.175781-16 16v272h-16zm448 320c0 13.230469-10.769531 24-24 24h-416c-13.230469 0-24-10.769531-24-24v-24h160v8c0 13.230469 10.769531 24 24 24h96c13.230469 0 24-10.769531 24-24v-8h160zm0 0"/><path d="m232 272h32c8.824219 0 16 7.175781 16 16s-7.175781 16-16 16h-32c-8.824219 0-16-7.175781-16-16h-16c0 17.648438 14.351562 32 32 32h8v16h16v-16h8c17.648438 0 32-14.351562 32-32s-14.351562-32-32-32h-32c-8.824219 0-16-7.175781-16-16s7.175781-16 16-16h32c8.824219 0 16 7.175781 16 16h16c0-17.648438-14.351562-32-32-32h-8v-16h-16v16h-8c-17.648438 0-32 14.351562-32 32s14.351562 32 32 32zm0 0"/></svg>