<svg height="512pt" viewBox="-53 0 512 512" fill="#ffffff" xmlns="http://www.w3.org/2000/svg"><path d="m376.066406 139.257812h-202.996094c-3.179687 0-6.164062-1.457031-8.183593-3.917968-9.492188-11.554688-23.882813-18.921875-39.992188-18.921875-29.253906 0-52.835937 24.292969-51.714843 53.824219 1.019531 26.894531 22.933593 48.785156 49.796874 49.757812 17.445313.628906 33.050782-7.386719 42.878907-20.105469 2.023437-2.617187 5.097656-4.199219 8.40625-4.203125l203.3125-.007812c15.148437 0 27.425781-12.292969 27.425781-27.457032 0-15.933593-13.019531-28.96875-28.933594-28.96875zm0 0"/><path d="m124.871094 316.578125c-12.640625 0-22.921875 10.300781-22.921875 22.960937 0 12.671876 10.28125 22.972657 22.921875 22.972657s22.917968-10.300781 22.917968-22.972657c0-12.660156-10.277343-22.960937-22.917968-22.960937zm0 0"/><path d="m124.828125 250.03125c-.976563 0-1.957031-.019531-2.9375-.050781-42.511719-1.539063-77.082031-36.058594-78.691406-78.601563-.847657-22.46875 7.25-43.75 22.8125-59.910156 15.558593-16.160156 36.46875-25.046875 58.878906-25.046875 21.339844 0 41.519531 8.21875 56.679687 22.839844h68.179688v-2.191407c0-26.101562-21.21875-47.339843-47.308594-47.339843-2.601562 0-4.839844-1.789063-5.550781-4.460938-8.742187-32.539062-38.351563-55.269531-72.019531-55.269531-33.660156 0-63.269532 22.730469-72.011719 55.28125-.71875 2.660156-2.949219 4.449219-5.558594 4.449219-26.082031 0-47.300781 21.238281-47.300781 47.339843v297.859376c0 26.101562 21.21875 47.339843 47.308594 47.339843 2.601562 0 4.832031 1.789063 5.550781 4.460938 8.742187 32.539062 38.351563 55.269531 72.011719 55.269531 33.667968 0 63.277344-22.730469 72.019531-55.269531.710937-2.671875 2.949219-4.460938 5.550781-4.460938 13.039063 0 24.867188-5.308593 33.4375-13.878906 8.5625-8.570313 13.871094-20.410156 13.871094-33.460937v-179.238282h-66.679688c-15.289062 15.480469-36.308593 24.339844-58.242187 24.339844zm15.042969 140.308594v39.332031c0 8.289063-6.710938 15-15 15-8.28125 0-15-6.710937-15-15v-39.332031c-21.902344-6.488282-37.921875-26.800782-37.921875-50.800782 0-29.199218 23.742187-52.960937 52.921875-52.960937 29.179687 0 52.917968 23.761719 52.917968 52.960937 0 24-16.019531 44.3125-37.917968 50.800782zm0 0"/></svg>