<svg version="1.1" id="Layer_1" xmlns="http://www.w3.org/2000/svg" xmlns:xlink="http://www.w3.org/1999/xlink" x="0px" y="0px"
	 width="100%" viewBox="0 0 400 416" enable-background="new 0 0 400 416" xml:space="preserve">
<path fill="#000000" opacity="1.000000" stroke="none" 
	d="
M73.000000,1.000000 
	C182.301865,1.000000 291.603729,1.000000 400.952820,1.000000 
	C400.952820,139.595276 400.952820,278.190582 400.952820,416.892944 
	C267.776489,416.892944 134.552841,416.892944 1.000000,416.892944 
	C1.000000,297.977570 1.000000,178.954819 1.236980,59.578297 
	C1.940916,59.376144 2.562372,59.801765 2.851796,59.638561 
	C7.659329,56.927593 11.615272,57.792923 15.100504,62.075954 
	C16.686485,64.024971 19.058800,64.229935 20.835739,62.420120 
	C25.675962,57.490360 32.269184,55.092007 37.377228,50.531956 
	C46.144478,42.705261 54.669693,34.527809 66.653786,31.462461 
	C71.926559,30.113768 74.974442,25.579418 77.902916,21.329556 
	C79.389008,19.172913 75.213890,2.714042 73.000000,1.000000 
M92.167007,274.323853 
	C79.957321,262.154510 72.558434,247.209717 67.968964,229.966064 
	C65.807358,232.824005 66.414261,234.894455 66.412132,236.811508 
	C66.368721,275.801880 66.375076,314.792267 66.375031,353.782654 
	C66.375023,361.518707 66.458572,361.616821 74.185471,361.617432 
	C126.672554,361.621704 179.159637,361.616394 231.646729,361.614136 
	C243.810410,361.613586 255.974106,361.627380 268.137726,361.598236 
	C270.243073,361.593201 272.883636,362.125305 273.551514,359.297241 
	C274.353882,355.899719 276.790375,355.430725 279.544220,355.179108 
	C285.172638,354.664886 290.786346,354.198181 296.309082,352.786987 
	C329.593170,344.282043 353.204285,314.086578 353.664215,280.730927 
	C353.692902,278.650391 353.895477,276.014832 356.130035,275.816833 
	C361.609375,275.331390 360.618073,271.575958 360.618744,268.214996 
	C360.632233,200.731598 360.634064,133.248199 360.636566,65.764809 
	C360.636902,57.410919 360.632507,57.377808 352.385803,57.378555 
	C299.232239,57.383381 246.078690,57.396526 192.925140,57.438644 
	C189.943558,57.441010 186.962204,57.724438 182.776703,57.938683 
	C186.255569,59.082188 188.427795,59.960659 190.680130,60.511635 
	C219.911621,67.662376 249.145935,74.802170 278.404114,81.842644 
	C282.596893,82.851562 284.452362,84.846474 284.433990,89.433235 
	C284.287292,126.090271 284.361328,162.748169 284.354675,199.405807 
	C284.354340,201.218491 284.380859,202.974976 283.366699,204.702377 
	C280.389343,209.773453 280.777649,210.799393 286.426117,211.901138 
	C295.308350,213.633621 304.000000,215.958313 311.651520,220.908432 
	C336.425842,236.936111 347.381744,259.657532 343.346039,288.991089 
	C338.556610,323.802704 305.350067,352.028351 264.519226,344.440704 
	C244.424286,340.706421 229.262527,329.402496 218.974518,311.662018 
	C218.180099,310.292114 217.696045,308.110138 215.673218,308.387573 
	C213.439529,308.693939 212.463303,310.600739 212.363983,312.789703 
	C212.268906,314.884949 210.815094,316.029327 209.442612,317.227386 
	C199.656708,325.769470 189.806641,334.239014 180.089661,342.858643 
	C176.985046,345.612671 174.265503,346.203400 170.939209,343.213257 
	C164.622864,337.535217 158.113297,332.072754 151.716995,326.482941 
	C132.025757,309.274536 112.350090,292.048279 92.167007,274.323853 
M87.461037,131.499512 
	C87.450111,157.153809 87.301170,182.809006 87.472305,208.462097 
	C87.607071,228.663239 94.083572,246.622711 109.162872,260.402100 
	C127.482475,277.142456 146.454971,293.168640 165.165710,309.480042 
	C166.506622,310.648987 167.881836,312.318451 169.953949,311.187012 
	C171.882233,310.134155 171.598541,308.082367 171.610367,306.267548 
	C171.644043,301.102020 171.618011,295.936035 171.666458,290.770691 
	C171.689560,288.307037 172.051193,285.807556 175.244202,285.825958 
	C178.646713,285.845581 178.454529,288.570282 178.463242,290.919250 
	C178.484879,296.751221 178.430496,302.583496 178.469391,308.415253 
	C178.479523,309.933441 178.708466,311.536102 180.398697,312.148315 
	C181.871033,312.681610 182.893921,311.621704 183.899826,310.746918 
	C188.928589,306.373718 193.955933,301.998901 198.981003,297.621460 
	C200.613388,296.199432 202.173752,294.915222 204.604263,294.779785 
	C209.584564,294.502167 211.242767,292.084229 210.818680,286.969330 
	C208.659851,260.932190 217.145447,239.511810 238.528259,223.807907 
	C245.459930,218.717194 253.248886,215.372818 261.560089,213.268311 
	C264.920471,212.417419 267.179230,210.294189 265.022461,207.294800 
	C262.476685,203.754379 262.693939,200.148819 262.690979,196.377106 
	C262.667572,166.549362 262.597992,136.721161 262.760193,106.894264 
	C262.785614,102.219406 261.192596,99.801010 256.610229,98.874054 
	C251.400162,97.820122 246.280182,96.324974 241.112732,95.055397 
	C222.225586,90.415062 203.317627,85.857788 184.458557,81.106201 
	C180.030930,79.990639 178.573746,81.920525 178.471924,85.816971 
	C178.380524,89.314049 178.456375,92.815170 178.414459,96.313980 
	C178.386429,98.655327 178.593674,101.506828 175.302795,101.540428 
	C171.878067,101.575394 171.686646,98.731041 171.663330,96.119865 
	C171.635056,92.953972 171.662277,89.787514 171.624634,86.621796 
	C171.552719,80.572670 170.752396,79.873909 164.836685,81.320709 
	C141.243378,87.090889 117.688034,93.018234 94.066368,98.668900 
	C89.322098,99.803810 87.342155,102.281418 87.412247,107.004608 
	C87.528435,114.834755 87.454735,122.667717 87.461037,131.499512 
M345.924713,326.346985 
	C333.036255,344.417908 315.652069,355.774963 294.097198,361.219269 
	C314.236755,361.635132 334.312378,361.518188 354.384827,361.719727 
	C359.231110,361.768372 360.756470,360.081696 360.707794,355.312775 
	C360.507355,335.681122 360.635437,316.046173 360.590118,296.412598 
	C360.587769,295.392090 361.194824,294.111908 359.743225,293.161255 
	C357.340851,304.968201 353.023743,315.856934 345.924713,326.346985 
M156.273438,57.428730 
	C144.797134,57.424015 133.320831,57.417534 121.844536,57.415016 
	C106.043739,57.411545 90.242920,57.393524 74.442154,57.416882 
	C66.786118,57.428196 66.379021,57.881386 66.370590,65.712715 
	C66.366470,69.538162 66.318375,73.364510 66.383392,77.188866 
	C66.472000,82.400856 67.313316,83.099854 72.309189,81.876793 
	C93.748451,76.628166 115.181015,71.351875 136.604034,66.037354 
	C146.483459,63.586506 156.510208,61.662472 166.060226,57.425423 
	C163.106216,57.425423 160.152222,57.425423 156.273438,57.428730 
M163.619202,66.807487 
	C162.193268,67.440758 159.949524,67.385345 160.376923,69.782257 
	C160.711411,71.658081 162.396744,72.291382 164.114700,72.568230 
	C164.931335,72.699821 165.835800,72.913208 166.591125,72.700745 
	C173.753418,70.686035 180.767151,72.390068 187.808563,73.439537 
	C190.997955,73.914886 193.531479,72.912323 196.095444,69.872009 
	C185.304489,66.236549 175.320450,62.010323 163.619202,66.807487 
M80.388702,110.028847 
	C80.443428,106.031975 80.322609,102.022919 80.598709,98.041405 
	C80.921013,93.393509 79.149399,91.516685 74.539017,92.621971 
	C73.031059,96.866913 73.136230,119.869316 74.766464,128.076141 
	C74.880165,120.978836 75.657982,114.403038 77.622032,106.845810 
	C78.319344,113.929153 78.908974,119.918633 79.498604,125.908112 
	C79.771530,125.905579 80.044464,125.903046 80.317398,125.900513 
	C80.317398,120.919571 80.317398,115.938637 80.388702,110.028847 
z"/>
<path fill="#000000" opacity="1.000000" stroke="none" 
	d="
M136.095795,218.448563 
	C131.803070,198.675430 139.316360,182.082001 148.535019,165.975052 
	C154.755966,155.105759 162.261078,145.108444 170.369766,135.576324 
	C174.383011,130.858597 176.250931,130.917175 180.209045,135.717346 
	C192.437576,150.547394 203.572891,166.075684 210.841553,184.049500 
	C215.519394,195.616806 217.035980,207.529663 213.994095,219.720581 
	C209.685806,236.986954 194.901718,247.859100 175.738602,248.195953 
	C155.807480,248.546341 141.517273,237.932587 136.095795,218.448563 
M164.931107,198.746552 
	C166.539795,203.013977 165.299133,206.373978 162.090027,209.520111 
	C157.237320,214.277603 158.787735,219.139420 164.861145,221.698349 
	C171.725189,224.590454 178.077301,223.063416 184.759644,221.484268 
	C191.041885,219.999649 194.322937,215.703064 196.446838,210.296570 
	C197.583557,207.402924 197.952271,204.169327 198.400345,201.050751 
	C199.625687,192.522125 201.886826,183.874786 198.269821,175.472107 
	C194.568375,166.873230 189.230881,159.224045 183.278778,152.009521 
	C181.880859,150.315094 180.315674,149.351166 178.078461,150.249985 
	C173.231415,152.197357 168.775650,154.705963 165.660263,159.077423 
	C162.382141,163.677231 159.178818,168.330841 155.866745,172.905853 
	C152.066833,178.154678 151.252090,184.177750 151.245544,190.392120 
	C151.242142,193.619278 152.887787,194.956360 156.116348,193.972946 
	C160.198441,192.729553 162.842102,194.508484 164.931107,198.746552 
z"/>
<path fill="#000000" opacity="1.000000" stroke="none" 
	d="
M102.267517,134.000290 
	C102.271706,151.643600 102.279541,168.786957 102.274017,185.930313 
	C102.273483,187.593231 102.318306,189.272049 102.113960,190.915115 
	C101.842506,193.097794 100.739288,194.779770 98.293983,194.708878 
	C96.102303,194.645340 95.134743,193.045441 94.865273,191.068558 
	C94.686485,189.756912 94.702263,188.413055 94.702103,187.083618 
	C94.699432,164.281296 94.668648,141.478821 94.760101,118.676842 
	C94.772476,115.590309 93.691086,110.949867 98.613365,111.054077 
	C102.957764,111.146049 102.146469,115.505524 102.222519,118.521599 
	C102.348351,123.511719 102.263527,128.507141 102.267517,134.000290 
z"/>
</svg>